<svg version="1.1" id="Capa_1" xmlns="http://www.w3.org/2000/svg" xmlns:xlink="http://www.w3.org/1999/xlink" x="0px" y="0px" viewBox="0 0 512 512" style="enable-background:new 0 0 512 512;" xml:space="preserve"><path style="fill:#738C96;" d="M512,256c0,68.387-26.635,132.674-74.985,181.025S324.377,512,256,512h-0.29 c-68.277-0.08-132.454-26.695-180.735-74.975C26.625,388.674,0,324.387,0,256c0-68.377,26.625-132.664,74.975-181.015 C123.256,26.705,187.433,0.08,255.71,0H256c68.377,0,132.664,26.635,181.015,74.985S512,187.623,512,256z M512,256c0,68.387-26.635,132.674-74.985,181.025S324.377,512,256,512h-0.29V0H256 c68.377,0,132.664,26.635,181.015,74.985S512,187.623,512,256z"/><g><path style="fill:#BEEBFA;" d="M313.169,146.891c0,31.524-25.645,57.169-57.169,57.169h-0.29 	c-31.404-0.16-56.889-25.745-56.889-57.169s25.485-57.009,56.889-57.169H256C287.524,89.722,313.169,115.367,313.169,146.891z M256,204.06h-0.29V89.722H256c31.524,0,57.169,25.645,57.169,57.169S287.524,204.06,256,204.06z"/><path style="fill:#BEEBFA;" d="M313.169,288.184v75.635c0,31.524-25.645,57.169-57.169,57.169h-0.29 c-31.404-0.16-56.889-25.745-56.889-57.169v-75.635c0-31.424,25.485-57.019,56.889-57.179H256 C287.524,231.005,313.169,256.66,313.169,288.184z M313.169,288.184v75.635c0,31.524-25.645,57.169-57.169,57.169h-0.29V231.005H256 C287.524,231.005,313.169,256.66,313.169,288.184z"/></g></svg>